<?xml version="1.0" encoding="UTF-8" standalone="no"?>
<!DOCTYPE svg PUBLIC "-//W3C//DTD SVG 1.1//EN" "http://www.w3.org/Graphics/SVG/1.1/DTD/svg11.dtd">
<svg width="100%" height="100%" viewBox="0 0 4953 3426" version="1.1" xmlns="http://www.w3.org/2000/svg" xmlns:xlink="http://www.w3.org/1999/xlink" xml:space="preserve" xmlns:serif="http://www.serif.com/" style="fill-rule:evenodd;clip-rule:evenodd;stroke-linecap:round;stroke-linejoin:round;stroke-miterlimit:1.5;">
    <g transform="matrix(1,0,0,1,5963.14,-18.7624)">
        <rect id="Mesa-de-trabajo1" serif:id="Mesa de trabajo1" x="-5963.14" y="18.762" width="4952.52" height="3425.66" style="fill:none;"/>
        <g id="Mesa-de-trabajo11" serif:id="Mesa de trabajo1">
            <g id="brazoDerecho" transform="matrix(1,0,0,1,517.031,46.4999)">
                <g id="brazoDerecho1" serif:id="brazoDerecho">
                    <g transform="matrix(-1,0,0,1,-2088.3,28.2824)">
                        <path d="M863.142,1895.44L819.2,1919.82L814.241,1937.73L829.256,1957.7L884.906,1925.6" style="fill:rgb(139,139,139);stroke:black;stroke-width:0.9px;"/>
                    </g>
                    <g transform="matrix(-1,0,0,1,-2088.3,28.2824)">
                        <path d="M865.419,1898.34L821.047,1923.32L817.002,1936.1L829.544,1953.97L882.608,1922.71" style="fill:rgb(220,220,220);stroke:black;stroke-width:0.9px;"/>
                    </g>
                    <g transform="matrix(-1.03324,-0.683684,-0.804981,1.21656,-387.054,1693.27)">
                        <ellipse cx="1509.39" cy="1118.31" rx="22.332" ry="12.808" style="fill:rgb(85,85,87);"/>
                    </g>
                    <g transform="matrix(-0.825939,-0.564383,-0.641672,0.94188,-881.824,1820.84)">
                        <ellipse cx="1509.39" cy="1118.31" rx="22.332" ry="12.808" style="fill:rgb(119,120,140);"/>
                    </g>
                    <g transform="matrix(-1,0,0,1,-2088.2,27.5149)">
                        <path d="M904.783,1843.89L937.106,1888.97L1054.27,1816.6C1064.4,1809.56 1064.79,1800.61 1058.68,1789.88C1055.68,1784.99 1052.15,1780.26 1048.84,1776.29C1038.47,1766.69 1026.68,1765.84 1011.37,1773.18C977.12,1796.09 940.651,1820.18 904.783,1843.89Z" style="fill:rgb(222,222,222);stroke:black;stroke-width:1.03px;"/>
                    </g>
                    <g transform="matrix(-0.312016,-0.201777,-0.209948,0.324651,-2215.35,1905.67)">
                        <ellipse cx="1509.39" cy="1118.31" rx="22.332" ry="12.808" style="fill:rgb(119,120,140);"/>
                    </g>
                    <g transform="matrix(1,0,0,1,-5963.14,18.7624)">
                        <path d="M2766.08,1809.15L2770.88,1783.34L2738.22,1801.29L2757.6,1759.39L2796.17,1741.05L2790.64,1772.26L2766.08,1809.15Z" style="fill:rgb(165,165,165);stroke:black;stroke-width:1.03px;"/>
                    </g>
                    <g transform="matrix(1,0,0,1,-5963.14,18.7624)">
                        <path d="M2738.49,1726.9L2707.73,1748.18L2698.17,1794.1L2722.22,1777.43L2738.29,1801.19L2757.57,1759.35L2738.49,1726.9Z" style="fill:rgb(165,165,165);stroke:black;stroke-width:1.03px;"/>
                    </g>
                    <g transform="matrix(1,0,0,1,-5963.14,18.7624)">
                        <path d="M2766.06,1809.14L2770.88,1783.35L2738.16,1801.39L2662.78,1964.78C2697.22,1912.9 2731.62,1861.02 2766.06,1809.14Z" style="fill:rgb(230,230,230);stroke:black;stroke-width:1.03px;"/>
                    </g>
                    <g transform="matrix(1,0,0,1,-5963.14,18.7624)">
                        <path d="M2722.22,1777.42L2698.07,1794.19L2662.42,1964.84L2738.25,1801.12L2722.22,1777.42Z" style="fill:rgb(230,230,230);stroke:black;stroke-width:1.03px;"/>
                    </g>
                    <g transform="matrix(1,0,0,1,-5963.14,18.7624)">
                        <path d="M2484.06,1671.27L2467.41,1710.56L2522.13,1732.79L2540.38,1692.16C2521.61,1685.1 2502.83,1678.13 2484.06,1671.27Z" style="fill:rgb(44,62,76);stroke:black;stroke-width:1.03px;"/>
                    </g>
                    <g transform="matrix(1,0,0,1,-5963.14,18.7624)">
                        <path d="M2393.91,1640.55L2404.31,1680.56L2419.62,1648.69L2393.91,1640.55Z" style="fill:rgb(44,62,76);stroke:black;stroke-width:1.03px;"/>
                    </g>
                    <g transform="matrix(-0.22331,-0.126777,-0.128055,0.225561,-2650.86,1776)">
                        <ellipse cx="1509.39" cy="1118.31" rx="22.332" ry="12.808" style="fill:rgb(119,120,140);"/>
                    </g>
                    <g transform="matrix(1,0,0,1,-5963.14,18.7624)">
                        <path d="M2677.6,1892.44L2546.86,1892.09C2541.93,1923.19 2545.31,1937.28 2554.41,1938.77C2564.13,1943.83 2583.09,1932.27 2607.74,1910.48L2590.57,1947.49L2662.14,1964.88L2677.6,1892.44Z" style="fill:rgb(79,91,101);stroke:black;stroke-width:1.03px;"/>
                    </g>
                    <g transform="matrix(-1,0,0,1,-2088.4,27.8694)">
                        <path d="M1169.56,1891.81L1012.89,1994.52L1059.07,2058.97L1211.96,1955.97L1169.56,1891.81Z" style="fill:rgb(79,91,101);stroke:black;stroke-width:1.03px;"/>
                    </g>
                    <g transform="matrix(-1,0,0,1,-2088.04,27.5657)">
                        <path d="M937.211,1888.93L945.838,1900.87L1109.04,1800.52L1084.42,1763.49L1054.28,1783C1064.8,1796.58 1066.55,1808.4 1054.41,1816.59L937.211,1888.93Z" style="fill:rgb(79,91,101);stroke:black;stroke-width:1.03px;"/>
                    </g>
                    <g transform="matrix(-0.22331,-0.126777,-0.128055,0.225561,-2546.5,1845.6)">
                        <ellipse cx="1509.39" cy="1118.31" rx="22.332" ry="12.808" style="fill:rgb(119,120,140);"/>
                    </g>
                    <g transform="matrix(-0.22331,-0.126777,-0.128055,0.225561,-2526.06,1816.41)">
                        <ellipse cx="1509.39" cy="1118.31" rx="22.332" ry="12.808" style="fill:rgb(119,120,140);"/>
                    </g>
                    <g transform="matrix(-0.22331,-0.126777,-0.128055,0.225561,-2629.37,1750.49)">
                        <ellipse cx="1509.39" cy="1118.31" rx="22.332" ry="12.808" style="fill:rgb(119,120,140);"/>
                    </g>
                    <g transform="matrix(1,0,0,1,-5963.14,18.7624)">
                        <path d="M2582.93,1964.05L2568.2,1995.9L2454.82,1980.66L2409.51,1974.74C2391.56,1969.6 2374.45,1961.98 2358.26,1951.72C2348.44,1945.59 2340.1,1938.55 2332.63,1930.96C2317.36,1915.3 2304.76,1896.56 2295.44,1874.04C2289.05,1858.79 2284.68,1842.24 2282.18,1824.47C2280.5,1811.35 2279.7,1798.23 2279.92,1785.11C2285.3,1801.73 2293.05,1816.77 2302.82,1830.47C2316.03,1848.76 2331.32,1864.72 2347.64,1879.53C2374.43,1904.28 2401.21,1921.22 2428,1931.57C2453.66,1942.08 2480.05,1949.91 2507.17,1955.11C2532.92,1960.18 2558.1,1962.83 2582.93,1964.05Z" style="fill:rgb(72,86,96);stroke:black;stroke-width:1.03px;"/>
                    </g>
                    <g transform="matrix(-1,0,0,1,-2086.54,25.4022)">
                        <path d="M954.214,1912.6L899.733,1946.19L1014.99,2106.51C1020.48,2114.76 1027.63,2117.21 1036.57,2113.46L1063.89,2093.95C1071.69,2088.56 1073.35,2078.98 1067.72,2070.75L954.214,1912.6Z" style="fill:rgb(230,230,230);stroke:black;stroke-width:1.03px;"/>
                    </g>
                    <g transform="matrix(1,0,0,1,-5963.14,18.7624)">
                        <path d="M2897.4,2063.36L2887.74,2086.73C2883.16,2094.74 2884.73,2099.36 2890.5,2101.66C2906.34,2110.77 2921.74,2118.93 2937.14,2125.39C2943.28,2128.19 2949.71,2128.27 2956.96,2120.7C2960.89,2116.27 2964.33,2111.07 2967.39,2105.29C2958.11,2096.59 2945.64,2086.3 2931.54,2075.62C2939.92,2079 2948.87,2083.43 2975.15,2100.47L3009.28,2046.91L2997.76,2072.07L2988.54,2089.12C2985.95,2094.12 2984.93,2097.66 2984.73,2100.45C3006.95,2111.13 3032.56,2118.13 3064.48,2118.96C3077.11,2105.45 3089.51,2089.55 3101.65,2070.99C3108.74,2061.43 3113.19,2052.56 3115.1,2044.35C3118.41,2030.37 3110.61,2027.28 3091.89,2014.53L3060.41,1993.85C3044.78,1981.72 3027.8,1978.29 3010.12,1979.4C2992.4,1981.05 2978.46,1984.15 2968.06,1988.59L2938.91,2005.62L2989.6,1934.83L3045.59,1967.15L3055.92,1953.41L3102.5,1981.7C3093.12,1984.1 3089.19,1990.08 3090.98,1999.81C3099.03,2019.14 3112.82,2025.84 3130.25,2024.71L3115.49,2057.64L3095.13,2086.75L3073.79,2113.98L3065.68,2123.96C3049.8,2123 3034.06,2120.84 3018.49,2117.26C3001.15,2114.02 2986.68,2108.32 2974.88,2100.31C2970.06,2111.18 2965.02,2119.57 2959.74,2125.05C2949.53,2135.81 2937.28,2137.51 2923.37,2131.78C2908.44,2124.46 2888.79,2113.39 2869.31,2102.46L2897.4,2063.36Z" style="fill:rgb(79,91,101);stroke:black;stroke-width:1.03px;"/>
                    </g>
                    <g transform="matrix(-1,0,0,1,-2088.3,27.8569)">
                        <path d="M1013,1994.54L945.581,1900.58L1108.83,1800.17L1169.65,1891.79L1013,1994.54Z" style="fill:rgb(101,115,127);stroke:black;stroke-width:1.03px;"/>
                    </g>
                    <g transform="matrix(-1,0,0,1,-2089.14,27.1014)">
                        <path d="M1196.39,1884.08L1166.27,1739.71L1272.46,1704.57C1281.08,1720.7 1289.16,1736.76 1296.03,1749.74C1306.91,1796.67 1320.57,1850.27 1327.17,1883.76C1287.12,1884.15 1243.32,1884.39 1196.39,1884.08Z" style="fill:rgb(101,115,127);stroke:black;stroke-width:1.03px;"/>
                    </g>
                    <g transform="matrix(1,0,0,1,-5963.14,18.7624)">
                        <path d="M2617.37,1682.54L2556.77,1655.65L2522.13,1732.78L2467.42,1710.57L2499.63,1634.63L2437.79,1610.79L2404.31,1680.57L2381.37,1592.08L2304.8,1578.37L2280.02,1784.25C2287.45,1809.27 2302.13,1835.85 2339.81,1872.28C2370.26,1901.19 2403.06,1923.64 2439.49,1936.06C2484.55,1952.13 2532.04,1962.23 2582.88,1964.08L2607.76,1910.45C2587.92,1927.15 2572.85,1940.21 2558.01,1939.84C2545.73,1939.53 2542.49,1925.57 2545.92,1898.5C2549.42,1877.75 2554.48,1854.84 2560.83,1830.18L2577.95,1758.26L2617.37,1682.54Z" style="fill:rgb(101,115,127);stroke:black;stroke-width:1.03px;"/>
                    </g>
                    <g transform="matrix(1,0,-5.55112e-17,1,-5963.14,18.7624)">
                        <path d="M2738.47,1726.83L2662.77,1964.16L2795.93,1741.17" style="fill:none;stroke:white;stroke-width:0.9px;"/>
                    </g>
                    <g transform="matrix(-1,0,0,1,-2083.59,27.3584)">
                        <path d="M1348.89,1916.25C1360.49,1929.57 1385.97,1922.81 1407.29,1915.06C1441.2,1901.56 1471.12,1882.73 1499.51,1861.87C1521.61,1845.58 1538.48,1830 1552.8,1814.77C1568.87,1796.87 1577.85,1782.44 1577.12,1769.92C1575.47,1776.77 1566.97,1788.39 1540.95,1812.21C1496.45,1851.33 1463.37,1875.84 1438.87,1889.38C1409.46,1905.22 1379.61,1915.63 1348.89,1916.25Z" style="fill:rgb(44,62,76);stroke:black;stroke-width:1.03px;"/>
                    </g>
                    <g transform="matrix(-0.999855,0.0170294,0.0170294,0.999855,-2117.1,-1.73239)">
                        <path d="M1385.66,1900.36C1403.01,1904.05 1570.31,1782.21 1567.15,1766.36C1567.14,1766.28 1567.2,1766.19 1567.17,1766.12C1567.32,1755.83 1563.91,1690.98 1556.43,1652.94C1561.79,1670.17 1566.83,1698.24 1573.82,1767.54C1510.62,1843.07 1429.42,1895.23 1385.66,1900.36Z" style="fill:white;stroke:black;stroke-width:1.03px;"/>
                    </g>
                </g>
                <g transform="matrix(1,0,0,1,-5963.11,18.7361)">
                    <path d="M2976.72,1952.78L2922.35,1919.26L2977.96,1841.72C2987.55,1825.86 2996.76,1822.17 3010.09,1832.48L3032.29,1848.44C3038.77,1854.73 3041.97,1861.86 3034.85,1871.66L2976.72,1952.78Z" style="fill:rgb(157,157,157);stroke:black;stroke-width:1.03px;"/>
                </g>
                <g transform="matrix(-1,0,0,1,-2088.08,27.6775)">
                    <path d="M890.338,2091.54C890.008,2082.24 874.746,2062.41 865.912,2037.92C876.716,2056.36 887.989,2074.41 899.984,2091.55C923.864,2075.53 937.301,2068.01 943.564,2066.74C931.279,2075.69 919.285,2085.55 907.752,2096.26C913.278,2107.45 921.098,2117.36 929.518,2118.53C940.028,2117.39 960.455,2106.21 985.611,2092.17C990.839,2090.02 991.47,2086.43 988.199,2079.61C984.571,2071.57 981.374,2063.08 977.75,2054.65L936.422,1996.93C928.389,1992.05 915.613,1985.15 907.388,1979.89C882.179,1970.15 851.972,1966.07 827.421,1976.58L772.643,2012.53C757.635,2022.46 755.436,2026.55 764.762,2048.79C777.914,2070.06 793.014,2091.12 810.578,2110.04C840.859,2109.26 867.226,2103.09 890.338,2091.54Z" style="fill:rgb(101,115,127);stroke:black;stroke-width:1.03px;"/>
                </g>
            </g>
            <g id="cabeza" transform="matrix(1,0,0,1,517.277,46.9678)">
                <g id="cabeza1" serif:id="cabeza">
                    <g id="cabeza2" serif:id="cabeza">
                        <g transform="matrix(-0.993197,0.116449,0.107539,0.917205,-2176.8,-66.6457)">
                            <path d="M1420.38,900C1420.38,885.315 1409.37,873.393 1395.81,873.393L1346.67,873.393C1333.11,873.393 1322.1,885.315 1322.1,900L1322.1,1022.68C1322.1,1037.37 1333.11,1049.29 1346.67,1049.29L1395.81,1049.29C1409.37,1049.29 1420.38,1037.37 1420.38,1022.68L1420.38,900Z" style="fill:rgb(101,115,127);stroke:black;stroke-width:1.07px;"/>
                        </g>
                        <g transform="matrix(-1.78409,0.209179,0.113093,0.96457,-1098.56,-238.32)">
                            <path d="M1395.36,912.63C1395.36,900.782 1390.16,891.164 1383.75,891.164L1360.54,891.164C1354.14,891.164 1348.94,900.782 1348.94,912.63L1348.94,1007.88C1348.94,1019.72 1354.14,1029.34 1360.54,1029.34L1383.75,1029.34C1390.16,1029.34 1395.36,1019.72 1395.36,1007.88L1395.36,912.63Z" style="stroke:black;stroke-width:0.72px;"/>
                        </g>
                        <g transform="matrix(0.993197,0.116449,-0.107539,0.917205,-5875.13,-75.2874)">
                            <path d="M1420.38,900C1420.38,885.315 1409.37,873.393 1395.81,873.393L1346.67,873.393C1333.11,873.393 1322.1,885.315 1322.1,900L1322.1,1022.68C1322.1,1037.37 1333.11,1049.29 1346.67,1049.29L1395.81,1049.29C1409.37,1049.29 1420.38,1037.37 1420.38,1022.68L1420.38,900Z" style="fill:rgb(101,115,127);stroke:black;stroke-width:1.07px;"/>
                        </g>
                        <g transform="matrix(1.78409,0.209179,-0.113093,0.96457,-6953.37,-246.962)">
                            <path d="M1395.36,912.63C1395.36,900.782 1390.16,891.164 1383.75,891.164L1360.54,891.164C1354.14,891.164 1348.94,900.782 1348.94,912.63L1348.94,1007.88C1348.94,1019.72 1354.14,1029.34 1360.54,1029.34L1383.75,1029.34C1390.16,1029.34 1395.36,1019.72 1395.36,1007.88L1395.36,912.63Z" style="stroke:black;stroke-width:0.72px;"/>
                        </g>
                        <g transform="matrix(1,0,0,1,-5963.14,18.7624)">
                            <path d="M2189.6,1556.05C2201.92,1576.79 2217.42,1588.48 2235.95,1591.73C2256.6,1596.26 2279.49,1591.64 2304.61,1577.84C2322.54,1582.7 2333.91,1567.48 2342.62,1544.12C2349.08,1525.28 2352.28,1502.9 2354.2,1478.42C2355.21,1462.42 2355.57,1446.42 2355.17,1430.42C2352.86,1423.64 2375.63,1394.37 2407.1,1364.09C2445.35,1331.27 2473.49,1293.78 2487.87,1249.94C2500.72,1202.91 2506.21,1157.04 2508.16,1111.74L2507.71,1081.72L2482.64,859.127L2257.49,780.28L2243.12,628.943L1629.61,630.184L1616.16,771.101L1391.12,849.772L1366.29,1068.37C1362.55,1106.46 1368.75,1153.44 1373.44,1184.3C1378.5,1222.85 1388.62,1257.99 1408.26,1288.67C1426.89,1318.25 1445.03,1337.14 1472.18,1359.96C1504.35,1393.71 1521.16,1415.47 1518.07,1421.71C1517.8,1450.57 1519.24,1479.18 1524.12,1507.3C1532.78,1552.8 1547.58,1573.61 1568.69,1569.03C1586.93,1578.89 1603.21,1583.38 1618.06,1584.02C1636.22,1585.48 1651.99,1580.41 1665.45,1569.48C1673.12,1563.36 1679.3,1555.23 1684.18,1546.81C1684.02,1553.08 1691.02,1564.11 1704.55,1578.01C1722.51,1581.27 1738.32,1583.44 1753.56,1585.04C1814.08,1584.81 1874.96,1584.82 1933.86,1584.27L2061.18,1583.03L2156.41,1581.67L2159.64,1581.58C2178.68,1582.52 2194.51,1580.3 2205.01,1575.9C2198.95,1569.97 2193.83,1563.33 2189.6,1556.05Z" style="fill:rgb(101,115,127);stroke:black;stroke-width:1.03px;"/>
                        </g>
                        <g transform="matrix(1,0,0,1,-5963.14,18.7624)">
                            <path d="M1314.67,872.395C1314.67,872.395 1319.3,863.39 1341.57,867.041C1341.57,867.041 1377.85,869.989 1384.06,873.883C1348.03,868.369 1327.86,868.044 1314.67,872.395Z" style="fill:rgb(218,218,218);stroke:black;stroke-width:1.03px;"/>
                        </g>
                        <g transform="matrix(-1,0,0,1,-2088.72,27.2304)">
                            <path d="M1314.67,872.395C1314.67,872.395 1319.3,863.39 1341.57,867.041C1341.57,867.041 1379.92,871.009 1386.12,874.903C1350.09,869.388 1327.86,868.044 1314.67,872.395Z" style="fill:rgb(218,218,218);stroke:black;stroke-width:1.03px;"/>
                        </g>
                        <g transform="matrix(1,0,0,1,-5963.14,18.7624)">
                            <path d="M2212.51,651.522L1670.77,651.522L1656.84,806.552C1656.84,806.552 1498.32,944.163 1529.68,1066.1L1615.03,1412.74L2253.86,1407.59C2281.44,1294.51 2308.94,1181.7 2339.23,1059.57C2337.85,1058.38 2364.76,995.467 2331.3,903.399C2309.28,842.789 2247.84,820.151 2220.74,802.715L2212.51,651.522Z" style="fill:rgb(101,115,127);stroke:rgb(44,62,76);stroke-width:5.92px;"/>
                        </g>
                        <g transform="matrix(0.731092,0,4.05838e-17,0.731092,-4939.84,244.003)">
                            <circle cx="1700.51" cy="1756.27" r="73.278" style="fill:rgb(79,91,101);stroke:black;stroke-width:1.23px;"/>
                        </g>
                        <g transform="matrix(1,0,0,1,-5963.14,18.7624)">
                            <circle cx="2266.59" cy="1509.17" r="47.467" style="fill:rgb(221,205,138);stroke:black;stroke-width:1px;"/>
                        </g>
                        <g transform="matrix(1,0.000448976,-0.000448976,1,-5978.89,7.6233)">
                            <path d="M1786.01,1477.21C1786.01,1477.21 1825.89,1482.4 1867.33,1485.14C1888.31,1486.52 1910.89,1488.58 1927.68,1488.02C1943.87,1487.48 1955.99,1488.3 1958.39,1487.88C1958.39,1487.88 1994.73,1485.96 2033.7,1484.36C2069.73,1482.89 2107.47,1477.4 2117.11,1468.29L2117.11,1500.62C2117.11,1500.62 2082.78,1512.15 2037.12,1515.5C2010.76,1517.44 1976.24,1518.91 1961.66,1517.88C1959.79,1517.75 1960.51,1518.26 1959.71,1517.73C1963.34,1518.2 1954.25,1517.83 1944.18,1518.16C1930.06,1518.61 1907.28,1516.81 1883.17,1516.23C1836.6,1515.1 1785.82,1511.75 1788.24,1505.08L1786.01,1477.21Z" style="fill:rgb(56,56,56);stroke:rgb(56,56,56);stroke-width:1px;"/>
                        </g>
                        <g transform="matrix(1,0.000837649,-0.000837649,1,-5976.37,57.3903)">
                            <path d="M1786.01,1477.21C1786.01,1477.21 1825.89,1482.4 1867.33,1485.14C1888.31,1486.52 1910.89,1488.58 1927.68,1488.02C1943.87,1487.48 1955.99,1488.3 1958.39,1487.88C1958.39,1487.88 1994.73,1485.96 2033.7,1484.36C2069.73,1482.89 2107.47,1477.4 2117.11,1468.29L2117.11,1500.62C2117.11,1500.62 2082.78,1512.15 2037.12,1515.5C2010.76,1517.44 1976.24,1518.91 1961.66,1517.88C1959.79,1517.75 1960.51,1518.26 1959.71,1517.73C1963.34,1518.2 1954.25,1517.83 1944.18,1518.16C1930.06,1518.61 1907.28,1516.81 1883.17,1516.23C1836.6,1515.1 1785.82,1511.75 1788.24,1505.08L1786.01,1477.21Z" style="fill:rgb(56,56,56);stroke:black;stroke-width:1px;"/>
                        </g>
                        <g transform="matrix(1,0,0,1,-5963.14,18.7624)">
                            <path d="M1618.11,775.407C1544.38,799.349 1469.84,826.134 1395.29,852.949C1468.47,828.181 1541.51,804.922 1617.98,780.277L1618.11,775.407Z" style="fill:rgb(218,218,218);stroke:black;stroke-width:1.03px;"/>
                        </g>
                        <g transform="matrix(-1,-1.26635e-16,0,1,-2089.03,27.6627)">
                            <path d="M1618.11,775.407C1544.38,799.349 1469.84,826.134 1395.29,852.949C1468.47,828.181 1541.51,804.922 1617.98,780.277L1618.11,775.407Z" style="fill:rgb(218,218,218);stroke:black;stroke-width:1.03px;"/>
                        </g>
                        <g transform="matrix(0.747227,-7.15573e-18,-4.92445e-16,0.747227,-5619.05,211.364)">
                            <circle cx="1700.51" cy="1756.27" r="73.278" style="fill:rgb(79,91,101);stroke:black;stroke-width:1.2px;"/>
                        </g>
                        <g transform="matrix(1,0,5.55112e-17,1,-6614.62,15.2785)">
                            <circle cx="2266.59" cy="1509.17" r="47.467" style="fill:rgb(221,205,138);stroke:black;stroke-width:1px;"/>
                        </g>
                        <g transform="matrix(1,0,0,1,-5963.14,18.7624)">
                            <path d="M1664.33,742.344C1664.34,743.102 1665.51,672.467 1683.58,666.525C1683.58,666.525 1696.89,658.206 1721.61,658.206L2171.81,659.792C2171.72,659.969 2195.8,661.182 2204.72,672.299C2204.11,670.141 2215.38,708.688 2215.48,734.013C2213.86,732.163 2201.73,669.813 2179.09,673.809L1720.93,670.691C1721.24,671.049 1703.94,672.3 1692.41,680.046C1693.22,679.542 1684.73,686.198 1677.03,701.409C1669.04,717.204 1664.3,741.058 1664.33,742.344Z" style="fill:white;stroke:black;stroke-width:1.03px;"/>
                        </g>
                        <g transform="matrix(1,0,0,1,-5959.6,18.2704)">
                            <path d="M2338.62,1061.89L2422.37,1044.89L2342.72,1045.09L2338.62,1061.89Z" style="fill:rgb(44,62,76);stroke:rgb(44,62,76);stroke-width:2.55px;"/>
                        </g>
                        <g transform="matrix(-1,0,0,1,-2097.13,25.1805)">
                            <path d="M2339.66,1060.21C2367.94,1054.45 2397.88,1048.63 2422.37,1044.89L2342.72,1045.09C2341.95,1050.13 2340.97,1055.17 2339.66,1060.21Z" style="fill:rgb(44,62,76);stroke:rgb(44,62,76);stroke-width:2.69px;"/>
                        </g>
                        <g transform="matrix(1,0,0,1,-5963.14,18.7624)">
                            <path d="M1389.74,1070.24L1366.22,1069.51C1364.16,1095.14 1365.52,1123.37 1368.7,1150.57C1373.57,1187.08 1377.28,1218.64 1387.59,1246.37C1404.98,1293.17 1434.09,1328.04 1468.88,1356.97C1503.7,1392.67 1519.74,1413.63 1518.22,1420.93C1517.85,1448.31 1519.07,1475.42 1523.22,1502.05C1530.34,1552.1 1550.12,1574.97 1568.78,1568.93C1595.19,1583.44 1619.21,1587.12 1641.38,1581.99C1660.07,1576.91 1673.84,1564.4 1684.1,1546.8C1683.12,1541.91 1682.15,1536.75 1681.37,1531.77C1672.08,1547.84 1652.6,1561.96 1615,1571.68C1585.26,1574.73 1558.67,1551.9 1548.25,1522.6C1541.63,1489.01 1535.58,1445.36 1535.89,1409.03C1513.24,1386.3 1494.36,1366.26 1478.89,1348.67C1461.75,1329.15 1448.82,1312.65 1439.65,1298.84C1414.96,1259.88 1394.7,1217.98 1387.36,1167.46C1386.26,1140.25 1387.33,1108.25 1389.74,1070.24Z" style="fill:rgb(79,91,101);stroke:black;stroke-width:1.03px;"/>
                        </g>
                        <g transform="matrix(-1,0,0,1,-2089.79,26.5645)">
                            <path d="M1387.89,1070.37C1379.58,1070.22 1372.7,1070.01 1366.22,1069.51C1364.16,1095.14 1365.37,1123.37 1368.56,1150.57C1373.21,1187.6 1377.12,1219.11 1387.12,1246.55C1393.97,1265.37 1402.4,1281.8 1412.08,1296.5C1427.86,1320.45 1446.94,1339.78 1467.86,1357.25C1503.68,1394.54 1516.69,1411.22 1518.22,1420.93C1517.85,1448.31 1518.62,1475.42 1522.77,1502.05C1529.21,1552.44 1548.94,1576.39 1568.41,1569.94C1594.76,1584.4 1618.12,1588.16 1640.36,1583.47C1659.06,1578.39 1673.56,1565.73 1683.83,1548.13C1682.33,1543.24 1680.44,1534.01 1679.95,1529.02C1662.76,1548.23 1638.61,1567.96 1615,1571.26C1579.58,1568.41 1555.82,1551.54 1546.24,1522.96C1540.06,1489.14 1533.66,1445.44 1533.97,1409.1C1511.32,1386.38 1493.37,1367.1 1477.88,1349.53C1460.26,1329.54 1446.4,1311.67 1437.3,1297.93C1412.46,1260.41 1393.34,1218.43 1386.3,1167.5C1384.73,1146.31 1385.9,1098.5 1387.89,1070.37Z" style="fill:rgb(79,91,101);stroke:black;stroke-width:1.03px;"/>
                        </g>
                        <g transform="matrix(1,0,0,1,-5963.14,18.7624)">
                            <path d="M1679.47,1490.37C1681.35,1512.31 1684.62,1529.53 1690.28,1544.31C1698.75,1566.04 1708.83,1574.65 1718.65,1580.36C1731.23,1582.42 1743.09,1583.94 1754.38,1585.04C1890.56,1584.2 2026.74,1584 2161.37,1581.67C2175.73,1573.3 2183.92,1558.17 2189.45,1537.55C2193.95,1520.81 2195.86,1501.22 2196.91,1481.56C2175.98,1510.66 2147.23,1519.2 2102.61,1511.49L2102.91,1541.09C2079.55,1547.52 2055.14,1553.43 2023.67,1555.89C1975.65,1559.29 1928.45,1559.66 1873.39,1556.54C1858.39,1556.06 1847.16,1556.13 1826.18,1554.68C1807.86,1553.63 1778.01,1551.7 1773.76,1546.3L1771.81,1519.85C1754.86,1522.94 1737.72,1523.96 1721.5,1520.02C1706.37,1516.21 1691.33,1508.18 1679.47,1490.37Z" style="fill:rgb(79,91,101);stroke:black;stroke-width:1.03px;"/>
                        </g>
                        <g transform="matrix(1,0,0,1,-5963.14,18.7624)">
                            <path d="M1718.45,1580.38L1704.54,1578.03C1695.06,1568.24 1689.11,1560.24 1685.76,1553.56C1683.39,1545.69 1680.84,1530.91 1677.89,1507.16C1676.51,1496.02 1675.91,1485.03 1675.52,1474.09C1675.38,1460.75 1676.72,1451.94 1678.47,1444.39C1678.25,1455.56 1678.23,1466.83 1678.76,1478.38C1679.4,1493.02 1681.05,1506.88 1683.46,1520.15C1686.34,1534.61 1690.2,1545.52 1694.65,1554.29C1700.16,1565.67 1708.23,1574.22 1718.45,1580.38Z" style="fill:rgb(44,62,76);stroke:black;stroke-width:1.03px;"/>
                        </g>
                        <g transform="matrix(-1,0,0,1,-2087.54,14.5063)">
                            <path d="M1714.27,1585.97L1704.35,1586.05C1690.12,1572.7 1684.88,1558.5 1684.42,1553.99C1683.02,1546.09 1680.25,1531.62 1677.3,1507.4C1675.63,1495.96 1675.22,1484.82 1675.17,1474.2C1675,1460.71 1676.67,1451.62 1678.47,1444.39C1678.29,1455.51 1678.05,1466.71 1678.46,1478.38C1679.16,1492.39 1679.76,1506.07 1681.87,1520.5C1684,1535.04 1687.28,1547.91 1690.74,1555.89C1695.03,1566.95 1702.37,1579.37 1714.27,1585.97Z" style="fill:rgb(44,62,76);stroke:black;stroke-width:1.03px;"/>
                        </g>
                        <g transform="matrix(-1,0,0,1.04917,-2096.12,-52.6504)">
                            <path d="M2270.68,1348.96L2366.26,1348.79L2380.35,1362.25L2380.41,1378.74L2376.1,1364.31L2364.15,1353.67L2269.76,1354.6L2270.68,1348.96Z" style="fill:rgb(44,62,76);stroke:rgb(44,62,76);stroke-width:1.01px;"/>
                        </g>
                        <g transform="matrix(1,0,0,1,-5963.14,18.7624)">
                            <path d="M2190.39,1359.18L1693.97,1366.19L1612.12,1059.49C1617.78,1007.34 1641.77,957.272 1680.4,914.41C1729.01,862.805 1794.86,832.679 1874.85,820.193C1946.49,810.223 2005.21,813.157 2058.36,821.677C2140.15,836.764 2186.33,866.195 2217.33,900.577C2237.78,924.115 2255.16,952.509 2263.94,991.4C2268.94,1013.87 2270.45,1035.32 2268.85,1055.87L2190.39,1359.18Z" style="fill:rgb(56,56,56);stroke:black;stroke-width:1.03px;"/>
                        </g>
                        <g transform="matrix(1.33152,-0.0608846,0.0608846,1.33152,-6571.39,-218.243)">
                            <path d="M1946.66,979.188L1837.83,1090.51L1883.44,1092.49L1792.72,1183.22L1937.59,1067.91L1882.52,1064.92L1946.66,979.188Z" style="fill:rgb(221,205,138);stroke:black;stroke-width:0.75px;"/>
                        </g>
                        <g transform="matrix(0.919555,-0.656669,0.719361,1.00735,-6645.5,1007.52)">
                            <ellipse cx="1509.39" cy="1118.31" rx="22.332" ry="12.808" style="fill:rgb(94,94,94);stroke:black;stroke-width:0.87px;"/>
                        </g>
                        <g transform="matrix(0.923885,-0.665191,0.751491,1.04375,-6645.61,1164.98)">
                            <ellipse cx="1509.39" cy="1118.31" rx="22.332" ry="12.808" style="fill:rgb(94,94,94);stroke:black;stroke-width:0.85px;"/>
                        </g>
                        <g transform="matrix(-0.927169,-0.662106,-0.725317,1.01569,-1392.53,998.729)">
                            <ellipse cx="1509.39" cy="1118.31" rx="22.332" ry="12.808" style="fill:rgb(94,94,94);stroke:black;stroke-width:0.87px;"/>
                        </g>
                        <g transform="matrix(1,0,0,1,-5963.52,18.7454)">
                            <path d="M1675.97,798.251L1689.73,683.209C1694.75,676.91 1706.18,672.94 1721.58,670.703L2178.79,673.802C2181.94,673.371 2185.38,673.53 2189.3,676.376L2196.71,793.504C2154.87,775.702 2102.09,764.129 2038.94,758.448C2010.11,755.713 1976.92,754.496 1937.98,755.288C1908.15,753.657 1874.54,755.188 1836.01,760.845C1784.96,768.139 1731.42,781.039 1675.97,798.251Z" style="fill:rgb(79,91,101);stroke:black;stroke-width:1.03px;"/>
                        </g>
                    </g>
                    <g transform="matrix(1,0,0,1,-5963.14,18.7624)">
                        <path d="M2270.68,1348.96L2372.46,1349.07L2386.06,1363.18L2386.02,1384.74L2379.84,1364.59L2368.62,1354.76L2269.76,1354.6L2270.68,1348.96Z" style="fill:rgb(44,62,76);stroke:rgb(44,62,76);stroke-width:1.03px;"/>
                    </g>
                    <g transform="matrix(-0.914204,-0.658221,-0.743616,1.03281,-1438.3,1168.84)">
                        <ellipse cx="1509.39" cy="1118.31" rx="22.332" ry="12.808" style="fill:rgb(94,94,94);stroke:black;stroke-width:0.86px;"/>
                    </g>
                </g>
                <g transform="matrix(1,0,0,1,-5963.14,18.7624)">
                    <path d="M1704.27,1577.95C1692.38,1565.55 1684.72,1554.61 1684.09,1546.99C1678.74,1556.09 1672.59,1563.73 1665.23,1569.71C1678.62,1573.21 1691.6,1575.9 1704.27,1577.95Z" style="fill:rgb(101,115,127);stroke:black;stroke-width:1.03px;"/>
                </g>
            </g>
            <g id="torso" transform="matrix(1,0,0,1,517.278,46.8161)">
                <g transform="matrix(1,0,0,1,-5963.14,18.7624)">
                    <path d="M2103.19,2068.09C2110.64,2075.96 2096.66,2084.88 2076.4,2094.11C2051.54,2104.8 2024.87,2114.16 1995.54,2121.57L1885.29,2123.53C1858.96,2116.4 1834.99,2108.46 1813.54,2099.64C1800.18,2094.81 1789.92,2089.74 1781.5,2082.98C1775.57,2078.45 1773.93,2073.53 1777.64,2069.76C1746.87,2086.5 1718.38,2096.66 1691.73,2099C1653.62,2104.3 1617.34,2097.43 1584.4,2068.17C1581.26,2065.85 1578.1,2063.18 1575.19,2060.06C1567.02,2051.3 1559.06,2040.43 1550.81,2026.04L1517.34,1941.07C1536.55,1928.37 1550.58,1913.87 1563.72,1893.19C1583.84,1862.71 1593.37,1823.64 1593.97,1777.09L1568.84,1569.06C1590.7,1580.52 1605.07,1583.88 1624.15,1584.22C1640.79,1584.16 1653.88,1578.69 1665.25,1569.7C1677.57,1573.15 1695.15,1576.53 1709.84,1578.89C1724.77,1581.59 1739.5,1583.44 1754.12,1585.08C1889.18,1584.7 2023.36,1584.59 2158.97,1581.54C2165.78,1581.91 2172.33,1581.98 2178.27,1581.39C2190.17,1580.32 2199.04,1578.74 2205.06,1575.89C2218.36,1588.03 2234.04,1593.88 2252.03,1593.24C2270.05,1593.15 2287.49,1587.3 2304.56,1578.05L2280.2,1780.12C2277.89,1842.62 2297.1,1894.92 2333.03,1931.27C2340.91,1939.27 2349.34,1946.09 2358.35,1951.64L2330.54,2023.81C2308.62,2061.63 2280.45,2085.21 2245.9,2094.23C2222.7,2100.58 2196.25,2101.1 2164.96,2092.97C2143.47,2087.74 2122.8,2079.71 2103.19,2068.09Z" style="fill:rgb(101,115,127);stroke:black;stroke-width:1.03px;"/>
                </g>
                <g transform="matrix(1,0,0,1,-5467.59,-3.59039)">
                    <circle cx="1700.51" cy="1756.27" r="73.278" style="fill:rgb(79,91,101);stroke:black;stroke-width:0.9px;"/>
                </g>
                <g transform="matrix(1.34862,0,0,1.34862,-6823.65,-282.089)">
                    <circle cx="2266.59" cy="1509.17" r="47.467" style="fill:rgb(221,205,138);stroke:black;stroke-width:0.74px;"/>
                </g>
                <g transform="matrix(1,0,0,1,-5989.41,3.16269)">
                    <circle cx="1700.51" cy="1756.27" r="73.278" style="fill:rgb(79,91,101);stroke:black;stroke-width:0.9px;"/>
                </g>
                <g transform="matrix(1.34862,0,0,1.34862,-7346.19,-274.708)">
                    <circle cx="2266.59" cy="1509.17" r="47.467" style="fill:rgb(221,205,138);stroke:black;stroke-width:0.74px;"/>
                </g>
                <g transform="matrix(0.370444,-0.0169388,0.0169388,0.370444,-4478.31,1382.98)">
                    <path d="M1946.66,979.188L1837.83,1090.51L1883.44,1092.49L1792.72,1183.22L1937.59,1067.91L1882.52,1064.92L1946.66,979.188Z" style="stroke:black;stroke-width:5.76px;"/>
                </g>
                <g transform="matrix(1,0,0,1,-5963.14,18.7624)">
                    <path d="M1761.94,1645.87C1883.83,1656.14 2001.32,1655.33 2114.39,1642.1C2063.5,1652.96 2013.19,1664.09 1940.86,1664.69C1871.8,1665.01 1819.66,1653.49 1761.94,1645.87Z" style="fill:white;stroke:black;stroke-width:1.03px;"/>
                </g>
                <g transform="matrix(1,0,0,1,-5963.14,18.7624)">
                    <path d="M1936.74,1934.54C1937.12,1813.09 2055.29,1685.63 2218.2,1585.54C2221.39,1587.2 2224.12,1588.34 2226.63,1589.23C2083.38,1676.74 1974.81,1807.89 1936.74,1934.54Z" style="fill:rgb(44,62,76);stroke:black;stroke-width:1.03px;"/>
                </g>
                <g transform="matrix(-1,0,0,1,-2096.93,18.6115)">
                    <path d="M1936.74,1934.54C1937.12,1813.09 2058.14,1681.19 2221.05,1581.1C2223.51,1581.94 2224.07,1582.02 2228.31,1583.1C2080.99,1673.52 1977.8,1794.82 1936.74,1934.54Z" style="fill:rgb(44,62,76);stroke:black;stroke-width:1.03px;"/>
                </g>
                <g transform="matrix(1,0,0,1,-5963.14,18.7624)">
                    <path d="M1579.22,2014.19L1546.06,2014.26C1536.5,1989.99 1526.94,1965.57 1517.38,1941.14C1527.55,1934.28 1536.79,1926.3 1545.3,1917.45C1558.04,1949.01 1571.41,1980.57 1579.22,2014.19Z" style="fill:rgb(79,91,101);stroke:black;stroke-width:1.03px;"/>
                </g>
                <g transform="matrix(-1,0,0,1,-2084.28,13.5209)">
                    <path d="M1581.45,2014.87L1543.01,2015C1533.44,1990.72 1530.07,1981.36 1520.51,1956.92C1530.67,1950.07 1537.83,1944.92 1546.34,1936.08C1561.44,1967.25 1557.61,1954.51 1581.45,2014.87Z" style="fill:rgb(79,91,101);stroke:black;stroke-width:1.03px;"/>
                </g>
                <g transform="matrix(1,0,0,1,-5963.14,18.7624)">
                    <path d="M2039.4,2108.55C2024.45,2113.33 2009.8,2117.86 1995.51,2121.65C1977.18,2122.07 1958.66,2122.44 1939.94,2122.75C1921.89,2123.05 1903.65,2123.29 1885.22,2123.48C1868.89,2119.11 1853.81,2114.52 1836.38,2108.01C1868.03,2114.05 1887.15,2116.94 1902.57,2111.08C1910,2100.24 1964.29,2100.7 1971.91,2110.23C1986.91,2119.56 2013.84,2112.98 2039.4,2108.55Z" style="fill:rgb(80,98,111);stroke:black;stroke-width:1.03px;"/>
                </g>
                <g transform="matrix(1,0,0,1,-5963.14,18.7624)">
                    <path d="M2317.34,2043.95L2245.29,2043.86L2180.4,1978.93L2180.37,1938.38L2251.72,2009.74L2336.01,2009.72C2331.77,2021.86 2328.26,2029.55 2317.34,2043.95Z" style="stroke:black;stroke-width:1.03px;"/>
                </g>
                <g transform="matrix(1,0,0,1,-5963.14,18.7624)">
                    <path d="M2240.64,2095.59L2183.65,2038.57L2183.64,2075.55L2207.22,2099.05C2219.8,2099.16 2230.93,2097.94 2240.64,2095.59Z" style="stroke:black;stroke-width:1.03px;"/>
                </g>
                <g transform="matrix(1,0,0,1,-5963.14,18.7624)">
                    <path d="M1684.37,2100.04L1706.55,2077.88L1706.56,2040.9L1648.41,2099.02C1661.36,2100.83 1673.29,2101.09 1684.37,2100.04Z" style="stroke:black;stroke-width:1.03px;"/>
                </g>
                <g transform="matrix(1,0,0,1,-5963.14,18.7624)">
                    <path d="M1565.44,2048.39L1637.03,2048.34L1701.94,1983.46L1701.94,1942.88L1630.58,2014.22L1546.12,2014.24C1550.04,2025.92 1556.91,2037.95 1565.44,2048.39Z" style="stroke:black;stroke-width:1.03px;"/>
                </g>
            </g>
            <g id="brazoIzquierdo" transform="matrix(1,0,0,1,517.238,46.7589)">
                <g id="brazoIzquierdo1" serif:id="brazoIzquierdo">
                    <g transform="matrix(1,5.55112e-17,1.11022e-16,1,-5963.14,18.7624)">
                        <path d="M904.783,1843.89L936.98,1888.65L1054.44,1816.24C1064.58,1809.2 1064.57,1799.85 1058.46,1789.12C1055.45,1784.23 1052.19,1780.11 1048.88,1776.15C1038.51,1766.55 1025.98,1765.76 1011.43,1773.24L904.783,1843.89Z" style="fill:rgb(222,222,222);stroke:black;stroke-width:1.03px;"/>
                    </g>
                    <g transform="matrix(1,0,-2.22045e-16,1,-5963.14,18.7624)">
                        <path d="M863.142,1895.44L819.2,1919.82L814.241,1937.73L829.256,1957.7L884.906,1925.6" style="fill:rgb(119,120,140);stroke:black;stroke-width:0.9px;"/>
                    </g>
                    <g transform="matrix(1,0,-2.22045e-16,1,-5963.14,18.7624)">
                        <path d="M865.419,1898.34L821.047,1923.32L817.002,1936.1L829.544,1953.97L882.608,1922.71" style="fill:rgb(220,220,220);stroke:black;stroke-width:0.9px;"/>
                    </g>
                    <g transform="matrix(0.312016,-0.201777,0.209948,0.324651,-5836.09,1896.15)">
                        <ellipse cx="1509.39" cy="1118.31" rx="22.332" ry="12.808" style="fill:rgb(119,120,140);"/>
                    </g>
                    <g transform="matrix(0.22331,-0.126777,0.128055,0.225561,-5505.95,1834.62)">
                        <ellipse cx="1509.39" cy="1118.31" rx="22.332" ry="12.808" style="fill:rgb(119,120,140);"/>
                    </g>
                    <g transform="matrix(0.22331,-0.126777,0.128055,0.225561,-5523.32,1806.76)">
                        <ellipse cx="1509.39" cy="1118.31" rx="22.332" ry="12.808" style="fill:rgb(119,120,140);"/>
                    </g>
                    <g transform="matrix(0.22331,-0.126777,0.128055,0.225561,-5398.86,1766.24)">
                        <ellipse cx="1509.39" cy="1118.31" rx="22.332" ry="12.808" style="fill:rgb(119,120,140);"/>
                    </g>
                    <g transform="matrix(0.22331,-0.126777,0.128055,0.225561,-5414.78,1738.38)">
                        <ellipse cx="1509.39" cy="1118.31" rx="22.332" ry="12.808" style="fill:rgb(119,120,140);"/>
                    </g>
                    <g transform="matrix(1.03324,-0.683684,0.804981,1.21656,-7664.22,1683.69)">
                        <ellipse cx="1509.39" cy="1118.31" rx="22.332" ry="12.808" style="fill:rgb(85,85,87);"/>
                    </g>
                    <g transform="matrix(0.825939,-0.564383,0.641672,0.94188,-7168.36,1811)">
                        <ellipse cx="1509.39" cy="1118.31" rx="22.332" ry="12.808" style="fill:rgb(119,120,140);"/>
                    </g>
                    <g transform="matrix(-1,0,0,1,-2088.08,9.93254)">
                        <path d="M2766.36,1808.86L2771.28,1782.61L2738.45,1800.72L2757.6,1759.39L2796.17,1741.05L2790.64,1772.26L2766.36,1808.86Z" style="fill:rgb(165,165,165);stroke:black;stroke-width:1.03px;"/>
                    </g>
                    <g transform="matrix(-1,0,0,1,-2088.48,9.19799)">
                        <path d="M2737.97,1727.71L2707.32,1748.96L2697.8,1794.45L2722.22,1777.43L2738.24,1801.12L2757.25,1760.04L2737.97,1727.71Z" style="fill:rgb(165,165,165);stroke:black;stroke-width:1.03px;"/>
                    </g>
                    <g transform="matrix(-1,0,0,1,-2088.5,9.19287)">
                        <path d="M2722.22,1777.42L2697.75,1794.45L2662.09,1965.42L2738.25,1801.05L2722.22,1777.42Z" style="fill:rgb(230,230,230);stroke:black;stroke-width:1.03px;"/>
                    </g>
                    <g transform="matrix(-1,0,0,1,-2089.64,9.5565)">
                        <path d="M2393.91,1640.55L2404.31,1680.56L2419.62,1648.69L2393.91,1640.55Z" style="fill:rgb(44,62,76);stroke:black;stroke-width:1.03px;"/>
                    </g>
                    <g transform="matrix(-1,0,0,1,-2089.64,9.52804)">
                        <path d="M2484.06,1671.27L2467.41,1710.56L2522.13,1732.79L2540.38,1692.16C2521.61,1685.1 2502.83,1678.13 2484.06,1671.27Z" style="fill:rgb(44,62,76);stroke:black;stroke-width:1.03px;"/>
                    </g>
                    <g transform="matrix(-1,0,0,1,-2088.27,9.02088)">
                        <path d="M2677.6,1892.44L2548.25,1892.25C2543.96,1921.7 2545.87,1935.85 2554.41,1938.77C2563.6,1944.99 2584.18,1933.45 2609.15,1910.94L2591.54,1948.77L2661.85,1965.78L2677.6,1892.44Z" style="fill:rgb(72,86,96);stroke:black;stroke-width:1.03px;"/>
                    </g>
                    <g transform="matrix(1,0,0,1,-5963.14,18.7624)">
                        <path d="M1169.64,1891.74L1012.89,1994.52L1059.44,2059.26L1212.44,1956.26L1169.64,1891.74Z" style="fill:rgb(72,86,96);stroke:black;stroke-width:1.03px;"/>
                    </g>
                    <g transform="matrix(1,0,0,1,-5963.14,18.7624)">
                        <path d="M936.975,1888.64L945.207,1900.22L1108.52,1799.76L1084.42,1763.49L1054.28,1783C1064.8,1796.58 1066.14,1808.35 1054,1816.54L936.975,1888.64Z" style="fill:rgb(72,86,96);stroke:black;stroke-width:1.03px;"/>
                    </g>
                    <g transform="matrix(-1,0,0,1,-2086.57,12.0904)">
                        <path d="M2976.72,1952.78L2922.35,1919.26L2979.94,1839.24C2989.58,1823.92 2997.49,1820.16 3010.76,1829.88L3033.72,1846.29C3041.33,1852.78 3043.28,1862.09 3034.85,1871.66L2976.72,1952.78Z" style="fill:rgb(165,165,165);stroke:black;stroke-width:1.03px;"/>
                    </g>
                    <g transform="matrix(-1,0,0,1,-2089.5,10.3501)">
                        <path d="M2583.35,1962.68L2568.35,1995.11L2454.76,1979.79L2409.62,1973.87C2391.68,1968.72 2374.67,1961.32 2358.48,1951.06C2348.66,1944.93 2340.37,1938.17 2332.89,1930.59C2317.62,1914.92 2304.93,1896.46 2295.61,1873.94C2289.22,1858.69 2284.99,1842.28 2282.48,1824.52C2280.68,1811.36 2279.69,1798.22 2279.89,1785.07C2285.27,1801.69 2293.05,1816.77 2302.82,1830.47C2316.03,1848.76 2331.4,1864.53 2347.96,1879.07C2379.89,1907.11 2401.45,1920.18 2428.18,1930.5C2454.04,1940.48 2480.17,1948.67 2507.29,1953.87C2533.04,1958.94 2558.55,1961.75 2583.35,1962.68Z" style="fill:rgb(72,86,96);stroke:black;stroke-width:1.03px;"/>
                    </g>
                    <g transform="matrix(1,0,0,1,-5963.14,18.7624)">
                        <path d="M954.225,1912.58L899.733,1946.19L1014.99,2106.51C1020.48,2114.76 1027.63,2117.21 1036.57,2113.46L1063.89,2093.95C1071.69,2088.56 1073.35,2078.98 1067.72,2070.75L954.225,1912.58Z" style="fill:rgb(230,230,230);stroke:black;stroke-width:1.03px;"/>
                    </g>
                    <g transform="matrix(-1,0,0,1,-2088.54,9.37126)">
                        <path d="M2896.62,2064.4C2893.63,2071.69 2890.53,2079.01 2887.23,2086.62C2882.38,2096.19 2882.72,2098.9 2888.86,2101.63C2904.69,2110.74 2920.96,2119.56 2936.36,2126.03C2944.02,2128.93 2949.95,2128.82 2956.44,2120.16C2960.14,2115.11 2963.4,2111.04 2966.61,2105.64C2957.09,2096.93 2944.63,2086.82 2930.79,2076.14C2938.75,2078.93 2947.44,2082.87 2974.57,2101.09C2980.93,2080.5 2992.1,2062.49 3008.28,2047.59C3003.47,2055.2 2998.7,2062.87 2994.2,2070.94C2991.26,2076.28 2988.41,2081.82 2985.78,2087.77C2983.59,2092.69 2982.51,2096.38 2981.82,2099.25C3004.03,2109.93 3029.46,2116.94 3061.38,2117.76C3074,2104.26 3086.47,2088.26 3098.62,2069.69C3105.71,2060.13 3110.03,2051.88 3111.94,2043.67C3115.25,2029.69 3109.9,2027.7 3091.18,2014.96L3059.84,1994.4C3044.2,1982.26 3027.61,1976.97 3009.93,1978.07C2991.67,1979.21 2976.08,1983.01 2965.8,1986.89C2956.8,1992.34 2949.66,1997.08 2941.59,2001.85L2989.6,1934.83L3045.36,1967.11L3055.37,1953.64L3098.95,1982.2C3090.21,1986.86 3089.71,1991.94 3090.98,1999.81C3099.78,2019.06 3112.36,2025.57 3128.48,2024.57C3124.44,2040.9 3120.3,2050.87 3115.96,2058.16C3108.25,2069.8 3101.85,2078.17 3095.3,2086.91C3088.64,2096.03 3081.39,2105.04 3073.79,2113.98L3065.19,2124.65C3049.31,2123.69 3033.88,2121.66 3018.31,2118.08C3000.97,2114.85 2986.12,2108.93 2974.32,2100.92C2969.5,2112.15 2965.02,2119.58 2959.74,2125.05C2949.93,2136.26 2936.82,2138.15 2923,2132.42C2911.72,2126.9 2888.36,2113.97 2868.88,2103.04L2896.62,2064.4Z" style="fill:rgb(79,91,101);stroke:black;stroke-width:1.03px;"/>
                    </g>
                    <g transform="matrix(1,0,0,1,-5963.14,18.7624)">
                        <path d="M1012.99,1994.49L945.258,1900.17L1108.5,1799.77L1169.65,1891.79L1012.99,1994.49Z" style="fill:rgb(101,115,127);stroke:black;stroke-width:1.03px;"/>
                    </g>
                    <g transform="matrix(1,0,0,1,-5963.14,18.7624)">
                        <path d="M1197.28,1882.75L1167.33,1739.27L1272.46,1704.57C1281.22,1720.7 1288.65,1736.13 1295.46,1748.7C1306.57,1794.4 1319.42,1848.05 1326.62,1882.48C1285.72,1882.86 1243.39,1883.06 1197.28,1882.75Z" style="fill:rgb(101,115,127);stroke:black;stroke-width:1.03px;"/>
                    </g>
                    <g transform="matrix(-1,0,0,1,-2089.63,9.53652)">
                        <path d="M2617.37,1682.54L2556.77,1655.65L2522.13,1732.78L2467.42,1710.57L2499.63,1634.63L2437.79,1610.79L2404.31,1680.57L2381.37,1592.08L2304.64,1578.37C2296.06,1647.29 2286.02,1730.04 2280.02,1784.25C2285.75,1808.84 2302.21,1836.95 2339.61,1872.45C2370.07,1901.35 2401.55,1923.03 2439.49,1935.72C2480.92,1951.36 2532.35,1961.67 2583.19,1963.52L2607.76,1910.45C2591.99,1924.34 2572.32,1939.91 2558.87,1940.01C2546.58,1940.1 2542.32,1927.19 2545.92,1898.5C2549.42,1877.75 2554.48,1854.84 2560.83,1830.18L2577.95,1758.26L2617.37,1682.54Z" style="fill:rgb(101,115,127);stroke:black;stroke-width:1.03px;"/>
                    </g>
                    <g transform="matrix(1,0,0,1,-5963.14,18.7624)">
                        <path d="M1079.12,1732.32L1212.25,1955.82" style="fill:none;stroke:white;stroke-width:0.9px;"/>
                    </g>
                    <g transform="matrix(1,0,0,1,-5963.14,18.7624)">
                        <path d="M1136.67,1718.39L1212.21,1955.39" style="fill:none;stroke:white;stroke-width:0.9px;"/>
                    </g>
                    <g transform="matrix(1,0,0,1,-5963.14,18.7624)">
                        <path d="M1348.89,1916.25C1360.49,1929.57 1385.97,1922.81 1407.29,1915.06C1441.2,1901.56 1471.12,1882.73 1499.51,1861.87C1521.61,1845.58 1538.48,1830 1552.8,1814.77C1568.87,1796.87 1577.85,1782.44 1577.12,1769.92C1575.47,1776.77 1566.97,1788.39 1540.95,1812.21C1496.45,1851.33 1463.37,1875.84 1438.87,1889.38C1409.46,1905.22 1379.61,1915.63 1348.89,1916.25Z" style="fill:rgb(44,62,76);stroke:black;stroke-width:1.03px;"/>
                    </g>
                    <g transform="matrix(0.999855,0.0170294,-0.0170294,0.999855,-5929.61,-13.6148)">
                        <path d="M1385.66,1900.36C1403.01,1904.05 1570.31,1782.21 1567.15,1766.36C1567.14,1766.28 1567.2,1766.19 1567.17,1766.12C1567.32,1755.83 1563.91,1690.98 1556.43,1652.94C1561.79,1670.17 1566.83,1698.24 1573.82,1767.54C1510.62,1843.07 1429.42,1895.23 1385.66,1900.36Z" style="fill:white;stroke:black;stroke-width:1.03px;"/>
                    </g>
                </g>
                <g transform="matrix(-1,0,0,1,-2088.52,9.16828)">
                    <path d="M2765.94,1809.65L2770.88,1783.35L2738.04,1801.48C2714.74,1851.62 2691.03,1902.9 2668.59,1951.84C2666.47,1956.44 2664.37,1961.03 2662.29,1965.58C2696.73,1913.7 2731.5,1861.53 2765.94,1809.65Z" style="fill:rgb(230,230,230);stroke:black;stroke-width:1.03px;"/>
                </g>
                <g transform="matrix(1,0,0,1,-5963.07,18.8905)">
                    <path d="M892.744,2089.69C888.77,2075.76 879.469,2058.24 866.272,2038.1C883.438,2054.2 894.155,2072.15 899.984,2091.55C923.864,2075.53 937.491,2068.09 943.754,2066.82C931.468,2075.84 919.47,2085.67 907.937,2096.19C916.595,2109.38 923.271,2118.74 929.518,2118.53C940.721,2117.29 961.45,2106.07 985.611,2092.17C991.128,2090.28 992.381,2086.67 988.415,2079.54L977.75,2054.65L933.184,1992.48C925.151,1987.6 917.059,1982.61 908.833,1977.34C874.307,1966.18 846.702,1965.23 827.384,1976.5L772.643,2012.53C760.018,2021.49 758.495,2027.7 767.811,2047.55C780.963,2068.82 795.558,2089.31 813.122,2108.22C842.999,2107.27 869.631,2101.24 892.744,2089.69Z" style="fill:rgb(101,115,127);stroke:black;stroke-width:1.03px;"/>
                </g>
            </g>
            <g id="piernaDerecha" transform="matrix(1,0,0,1,517.274,46.7926)">
                <g id="piernaDerecha1" serif:id="piernaDerecha">
                    <g transform="matrix(-1,0,0,1,-2088.25,12.6147)">
                        <path d="M1879.07,2270.39C1893.34,2256.12 1897.22,2250.44 1897.22,2250.44L1879.4,2230.7L1503.84,2231.65L1489.31,2252.41L1505.88,2268.58" style="fill:rgb(207,207,207);stroke:black;stroke-width:1px;"/>
                    </g>
                    <g transform="matrix(-1,0,0,1,-2083.68,14.4413)">
                        <path d="M1510.54,2275.63L1883.91,2276.11L1897.73,2294.07L1883.56,2309.4L1511.01,2309.28L1497.13,2291.39L1510.54,2275.63Z" style="fill:rgb(193,193,193);stroke:black;stroke-width:1px;"/>
                    </g>
                    <g transform="matrix(-0.99936,-0.0357775,-0.0357775,0.99936,-2019.46,249.519)">
                        <path d="M1565.44,2277.95L1834.82,2279.2C1839.96,2282.23 1845.71,2283.88 1846.2,2296.14C1843.32,2302.18 1838.65,2305.17 1834.27,2308.79C1812.33,2309.3 1834.56,2308.6 1821.91,2308.62C1728.61,2308.76 1686.13,2307.74 1567.85,2306.94C1560.61,2306.65 1554.41,2304.15 1552.48,2292.7C1554.76,2285.42 1559.34,2280.8 1565.44,2277.95Z" style="fill:rgb(193,193,193);stroke:black;stroke-width:1px;"/>
                    </g>
                    <g transform="matrix(1,0,0,1,-5479.96,15.1663)">
                        <path d="M1494.75,2247.79L1902.08,2249.93" style="fill:none;stroke:white;stroke-width:0.9px;"/>
                    </g>
                    <g transform="matrix(0.983037,0,0,1.00708,-5929.92,1.23467)">
                        <path d="M2021.61,2578.78C2020.06,2585.28 2021.36,2588.62 2030.05,2588.38L2303.2,2586.5C2310.14,2586.52 2312.03,2583.94 2312.33,2578.25C2267.7,2562.12 2237.64,2529.11 2237.38,2478.56L2098,2474.67C2099.29,2523.29 2067.47,2561.57 2021.61,2578.78Z" style="fill:rgb(212,212,212);stroke:black;stroke-width:1.04px;"/>
                    </g>
                    <g transform="matrix(0.979436,-6.98399e-05,-6.98399e-05,1,-5442.52,59.3814)">
                        <path d="M1492.27,2249.43L1900.8,2246.58" style="fill:none;stroke:white;stroke-width:0.91px;"/>
                    </g>
                    <g transform="matrix(-1,0,0,1,-2082.2,18.3189)">
                        <path d="M1885.48,2225L1885.41,2122.16C1822.24,2104.62 1796.88,2091.67 1784.59,2084.12C1777.43,2078.9 1773.12,2073.41 1777.71,2068.58C1760.64,2078.87 1744.69,2084.73 1726.12,2090.81C1674.21,2105.67 1628.76,2102.82 1590.38,2072.25C1575.44,2060.49 1562.47,2044.22 1550.74,2024.76C1543.2,2036.31 1535.38,2049.7 1528.3,2062.17C1518.94,2079.21 1510.27,2096.47 1503.18,2114.23C1495.61,2113.06 1492.53,2112.84 1491.78,2121.25L1487.73,2152.3C1486.87,2156.99 1487.66,2159.49 1490.59,2160.82C1488.26,2187.19 1499.25,2196.72 1508.64,2200.6L1509.91,2225.92L1885.48,2225Z" style="fill:rgb(72,86,96);stroke:black;stroke-width:1.03px;"/>
                    </g>
                    <g transform="matrix(1.00145,0,0,1.00453,-5966.19,7.54987)">
                        <path d="M2098.08,2474.94C2080.8,2480.7 2068.39,2495.2 2059.65,2516.31C2056.05,2516.19 2053.51,2513.76 2052.37,2508.28C2054.22,2495.19 2062.82,2483.78 2078.8,2474.18L2067.45,2473.81C2048.44,2487.15 2037.42,2500.91 2035.33,2515.13L2020.58,2579.96C2048.51,2569.29 2068.08,2553.06 2080.97,2532.37C2090.95,2517.88 2098.13,2500.33 2098.08,2474.94Z" style="fill:rgb(101,115,127);stroke:black;stroke-width:1.03px;"/>
                    </g>
                    <g transform="matrix(-0.991669,0.128814,0.128814,0.991669,-2367.91,-155.504)">
                        <path d="M1511.92,2117.34C1511.92,2114.55 1509.65,2112.29 1506.87,2112.29L1496.77,2112.29C1493.99,2112.29 1491.73,2114.55 1491.73,2117.34L1491.73,2155.03C1491.73,2157.81 1493.99,2160.07 1496.77,2160.07L1506.87,2160.07C1509.65,2160.07 1511.92,2157.81 1511.92,2155.03L1511.92,2117.34Z" style="fill:rgb(228,228,228);stroke:black;stroke-width:0.9px;"/>
                    </g>
                    <g transform="matrix(0.978972,0,0,1.04753,-5919.94,-98.8741)">
                        <path d="M2236.55,2478.42C2237.34,2524.39 2262.77,2556.88 2311.76,2574.23L2297.8,2507.39C2292.94,2490.53 2282.4,2482.39 2260.96,2478.93C2265.53,2480.36 2277.18,2488.68 2283.54,2497.93C2285.85,2501.28 2287.38,2505.2 2288.11,2509.5C2288.42,2512.55 2286.46,2515.3 2286.43,2515.33C2285.25,2516.53 2282.64,2519.72 2280.6,2518.58C2277.24,2508.68 2269.07,2496.98 2259.01,2488.67C2251.16,2482.19 2241.61,2477.45 2236.55,2478.42Z" style="fill:rgb(101,115,127);stroke:black;stroke-width:1.02px;"/>
                    </g>
                    <g transform="matrix(0.999871,0.0160532,-0.0160532,0.999871,-5923.58,-14.7303)">
                        <path d="M2029.54,2590.52C2026.23,2592.72 2023.35,2595.17 2020.28,2597.51C2016.36,2601.13 2017.97,2602.2 2023.59,2601.7L2311.27,2595.05C2314.96,2595.32 2315.58,2594.66 2310.28,2589.86C2307.7,2587.99 2305.48,2586.1 2302.71,2584.09L2029.54,2590.52Z" style="fill:rgb(107,114,116);stroke:black;stroke-width:1.03px;"/>
                    </g>
                    <g transform="matrix(-0.988271,0.152708,0.152708,0.988271,-2427.46,-181.838)">
                        <path d="M1498.87,2118.75C1498.87,2117.81 1498.11,2117.05 1497.17,2117.05L1493.78,2117.05C1492.84,2117.05 1492.08,2117.81 1492.08,2118.75L1492.08,2151.68C1492.08,2152.61 1492.84,2153.37 1493.78,2153.37L1497.17,2153.37C1498.11,2153.37 1498.87,2152.61 1498.87,2151.68L1498.87,2118.75Z" style="fill:rgb(44,62,76);stroke:black;stroke-width:0.9px;"/>
                    </g>
                    <g transform="matrix(1,0,0,1,-5963.12,18.7834)">
                        <path d="M2284.96,2450.94L2296.91,2451.31L2368.36,2311.29L2368.47,2304.93L2350.01,2304.93L2284.96,2450.94Z" style="fill:rgb(72,86,96);stroke:black;stroke-width:1.03px;"/>
                    </g>
                    <g transform="matrix(-1,0,0,1,-2075.83,17.2168)">
                        <path d="M1858.84,2444.26L1790.88,2446.47L1790.79,2420.39C1801.43,2421.45 1821.96,2424.42 1827.86,2429.92L1827.89,2408.05C1820.04,2405.42 1809.11,2402.74 1791.45,2399.86L1791.3,2369.65C1802.2,2370.74 1822.85,2373.59 1829.24,2379.29C1829.03,2372.34 1829.47,2363.58 1829.25,2357.31C1820.35,2354.6 1808.93,2351.66 1791.78,2349.12L1791.79,2306.58L1891.45,2306.59L1891.31,2312.77L1858.84,2444.26Z" style="fill:rgb(72,86,96);stroke:black;stroke-width:1.03px;"/>
                    </g>
                    <g transform="matrix(-1,0,0,1,-2082.63,17.8316)">
                        <path d="M1583.28,2067.75C1567.64,2062.62 1538.42,2063.43 1526.33,2073.01C1523.01,2075.63 1520.26,2078.33 1517.72,2081.73C1532.9,2069.18 1557.18,2063.77 1586.32,2069.94L1583.28,2067.75Z" style="fill:rgb(44,62,76);stroke:black;stroke-width:1.03px;"/>
                    </g>
                    <g transform="matrix(-1.08089,0,0,1,-1922.56,15.7532)">
                        <path d="M1692.13,2507.93C1701.91,2501.09 1715.26,2497.25 1733.32,2497.35C1752.14,2496.78 1760.31,2502.29 1768.02,2506.8C1744.84,2502.94 1719.55,2503.32 1692.13,2507.93Z" style="fill:white;stroke:black;stroke-width:0.99px;"/>
                    </g>
                    <g transform="matrix(-1,0,0,1,-2074.66,16.338)">
                        <path d="M1603.54,2453.4L1538.49,2307.35L1792.94,2307.43L1792.98,2349.97C1739.19,2342.72 1610.36,2347.85 1607.22,2354.54L1605.63,2374.12C1640.98,2371.09 1682.16,2361.87 1792.51,2370.5L1792.21,2400.91C1749.16,2393.85 1616.22,2397.49 1605.87,2404.92L1604.31,2424.74C1691.53,2413.1 1740.87,2418.28 1791.96,2421.27L1792.03,2447.34L1603.54,2453.4Z" style="fill:rgb(101,115,127);stroke:black;stroke-width:1.03px;"/>
                    </g>
                    <g transform="matrix(-1,0,0,1,-2082.32,17.0544)">
                        <path d="M1511.81,2273.02L1511.67,2264.17L1885.22,2265.54L1885.23,2273.5L1511.81,2273.02Z" style="fill:rgb(79,91,101);stroke:black;stroke-width:1.03px;"/>
                    </g>
                    <g transform="matrix(-1,0,0,1,-2077.99,16.725)">
                        <path d="M1790.94,2226.82L1790.98,2125.51C1733.09,2139.5 1709.01,2140.18 1668.63,2138.02C1621.53,2136.82 1601.28,2129.82 1573.89,2100.43C1559.87,2085.38 1551.2,2069.39 1544.56,2053.17C1525.73,2082.59 1517.4,2106.34 1514.4,2117.23C1515.96,2119.05 1516.94,2120.32 1516.48,2122.45L1511.89,2157.28C1512.03,2160.34 1510.59,2163.32 1507.41,2164C1504.31,2181.82 1504.93,2193.25 1507.46,2199.32C1509.25,2200.51 1511.06,2201.51 1512.85,2202.21L1514.1,2227.52L1790.94,2226.82Z" style="fill:rgb(101,115,127);stroke:black;stroke-width:1.03px;"/>
                    </g>
                </g>
                <g transform="matrix(-0.678765,-8.31247e-17,8.31247e-17,-0.678765,-2468.06,3393.15)">
                    <path d="M1786.01,1477.21C1786.01,1477.21 1825.89,1482.4 1867.33,1485.14C1888.31,1486.52 1910.89,1488.58 1927.68,1488.02C1943.87,1487.48 1955.99,1488.3 1958.39,1487.88C1958.39,1487.88 1994.73,1485.96 2033.7,1484.36C2069.73,1482.89 2107.47,1477.4 2117.11,1468.29L2117.11,1500.62C2117.11,1500.62 2082.78,1512.15 2037.12,1515.5C2010.76,1517.44 1976.24,1518.91 1961.66,1517.88C1959.79,1517.75 1960.51,1518.26 1959.71,1517.73C1963.34,1518.2 1954.25,1517.83 1944.18,1518.16C1930.06,1518.61 1907.28,1516.81 1883.17,1516.23C1836.6,1515.1 1785.82,1511.75 1788.24,1505.08L1786.01,1477.21Z" style="fill:rgb(190,190,190);stroke:black;stroke-width:1.47px;"/>
                </g>
                <g transform="matrix(-0.678765,-8.31247e-17,8.31247e-17,-0.678765,-2466.69,3443.78)">
                    <path d="M1786.01,1477.21C1786.01,1477.21 1825.89,1482.4 1867.33,1485.14C1888.31,1486.52 1910.89,1488.58 1927.68,1488.02C1943.87,1487.48 1955.99,1488.3 1958.39,1487.88C1958.39,1487.88 1994.73,1485.96 2033.7,1484.36C2069.73,1482.89 2107.47,1477.4 2117.11,1468.29L2117.11,1500.62C2117.11,1500.62 2082.78,1512.15 2037.12,1515.5C2010.76,1517.44 1976.24,1518.91 1961.66,1517.88C1959.79,1517.75 1960.51,1518.26 1959.71,1517.73C1963.34,1518.2 1954.25,1517.83 1944.18,1518.16C1930.06,1518.61 1907.28,1516.81 1883.17,1516.23C1836.6,1515.1 1785.82,1511.75 1788.24,1505.08L1786.01,1477.21Z" style="fill:rgb(190,190,190);stroke:black;stroke-width:1.47px;"/>
                </g>
                <g transform="matrix(-0.969352,-0.339457,-0.374847,1.07041,-1202.17,463.279)">
                    <path d="M1793.89,2465.71C1795.47,2465.86 1809.48,2477.75 1813.33,2496.35C1813.33,2496.35 1816.39,2506.14 1815.45,2511.3C1815.36,2511.78 1815.62,2510.89 1815.45,2511.3C1815.45,2511.3 1815.46,2511.76 1816.34,2511.84C1818.73,2512.02 1825,2510 1825.55,2503.64C1825.45,2503.54 1826.98,2493.11 1821.37,2484.87C1817.56,2479.19 1817.21,2475.09 1810.94,2470.47" style="fill:rgb(214,214,214);stroke:black;stroke-width:0.83px;"/>
                </g>
                <g transform="matrix(0.969352,-0.339457,0.374847,1.07041,-6388.45,467.584)">
                    <path d="M1793.89,2465.71C1795.47,2465.86 1809.48,2477.75 1813.33,2496.35C1813.33,2496.35 1816.39,2506.14 1815.45,2511.3C1815.36,2511.78 1815.62,2510.89 1815.45,2511.3C1815.45,2511.3 1815.46,2511.76 1816.34,2511.84C1818.73,2512.02 1825,2510 1825.55,2503.64C1825.45,2503.54 1826.98,2493.11 1821.37,2484.87C1817.56,2479.19 1817.05,2475.62 1810.78,2471" style="fill:rgb(190,190,190);stroke:black;stroke-width:0.83px;"/>
                </g>
                <g transform="matrix(-0.0575565,-0.412103,-0.473381,0.0661149,-3007.1,2686.03)">
                    <ellipse cx="1509.39" cy="1118.31" rx="22.332" ry="12.808" style="fill:rgb(163,146,130);"/>
                </g>
            </g>
            <g id="piernaIzquierda" transform="matrix(1,0,0,1,517.225,46.8477)">
                <g id="piernaIzquierda1" serif:id="piernaIzquierda">
                    <g id="piernaIzquierda2" serif:id="piernaIzquierda">
                        <g transform="matrix(1,0,0,1,-5961.89,16.1582)">
                            <path d="M1510.84,2275.66L1884.18,2275.22L1895.94,2293.35L1884.84,2309.19L1511.01,2308.9L1495.34,2290.14L1510.84,2275.66Z" style="fill:rgb(205,205,205);stroke:black;stroke-width:1px;"/>
                        </g>
                        <g transform="matrix(1,0,0,1,-5957.32,14.3316)">
                            <path d="M1879.42,2269.92C1893.69,2255.65 1894.68,2253.8 1894.68,2253.8L1879.52,2230.82L1503.84,2231.56L1488.59,2252.59L1505.97,2268.79" style="fill:rgb(213,213,213);stroke:black;stroke-width:1px;"/>
                        </g>
                        <g transform="matrix(-0.678765,-8.31247e-17,8.31247e-17,-0.678765,-2927.16,3395.89)">
                            <path d="M1786.01,1477.21C1786.01,1477.21 1825.89,1482.4 1867.33,1485.14C1888.31,1486.52 1910.89,1488.58 1927.68,1488.02C1943.87,1487.48 1955.99,1488.3 1958.39,1487.88C1958.39,1487.88 1994.73,1485.96 2033.7,1484.36C2069.73,1482.89 2107.47,1477.4 2117.11,1468.29L2117.11,1500.62C2117.11,1500.62 2082.78,1512.15 2037.12,1515.5C2010.76,1517.44 1976.24,1518.91 1961.66,1517.88C1959.79,1517.75 1960.51,1518.26 1959.71,1517.73C1963.34,1518.2 1954.25,1517.83 1944.18,1518.16C1930.06,1518.61 1907.28,1516.81 1883.17,1516.23C1836.6,1515.1 1785.82,1511.75 1788.24,1505.08L1786.01,1477.21Z" style="fill:rgb(190,190,190);stroke:black;stroke-width:1.47px;"/>
                        </g>
                        <g transform="matrix(1,0,0,1,-5963.14,18.7624)">
                            <path d="M1885.22,2226.4L1885.23,2123.64C1823.29,2105.38 1795.22,2093.55 1783.94,2084.91C1776.78,2079.69 1773.06,2074.59 1777.65,2069.76C1762.17,2078.53 1745.1,2085.92 1726.54,2091.99C1674.62,2106.85 1628.11,2103.61 1589.74,2073.04C1574.79,2061.28 1561.82,2045.47 1550.54,2026.01C1543,2037.56 1535.76,2049.88 1528.68,2062.35C1519.32,2079.4 1510.88,2096.67 1503.44,2114.2C1496.2,2113.02 1491.99,2112.71 1491.78,2121.25L1487.73,2152.3C1486.66,2156.84 1487.64,2159.6 1490.42,2160.78C1487.92,2185.94 1496.9,2197.03 1508.42,2201.95L1509.7,2227.13L1885.22,2226.4Z" style="fill:rgb(72,86,96);stroke:black;stroke-width:1.03px;"/>
                        </g>
                        <g transform="matrix(-0.678765,-8.31247e-17,8.31247e-17,-0.678765,-2926.89,3447.37)">
                            <path d="M1786.01,1477.21C1786.01,1477.21 1825.89,1482.4 1867.33,1485.14C1888.31,1486.52 1910.89,1488.58 1927.68,1488.02C1943.87,1487.48 1955.99,1488.3 1958.39,1487.88C1958.39,1487.88 1994.73,1485.96 2033.7,1484.36C2069.73,1482.89 2107.47,1477.4 2117.11,1468.29L2117.11,1500.62C2117.11,1500.62 2082.78,1512.15 2037.12,1515.5C2010.76,1517.44 1976.24,1518.91 1961.66,1517.88C1959.79,1517.75 1960.51,1518.26 1959.71,1517.73C1963.34,1518.2 1954.25,1517.83 1944.18,1518.16C1930.06,1518.61 1907.28,1516.81 1883.17,1516.23C1836.6,1515.1 1785.82,1511.75 1788.24,1505.08L1786.01,1477.21Z" style="fill:rgb(190,190,190);stroke:black;stroke-width:1.47px;"/>
                        </g>
                        <g transform="matrix(0.999327,-0.0366805,0.0366805,0.999327,-6027.79,253.006)">
                            <path d="M1565.44,2277.95L1834.82,2279.2C1839.96,2282.23 1845.71,2283.88 1846.2,2296.14C1843.32,2302.18 1838.65,2305.17 1834.27,2308.79C1820.84,2308.29 1836.15,2308.41 1821.91,2308.62C1728.62,2309.99 1686.13,2307.74 1567.85,2306.94C1560.61,2306.65 1554.41,2304.15 1552.48,2292.7C1554.76,2285.42 1559.34,2280.8 1565.44,2277.95Z" style="fill:rgb(193,193,193);stroke:black;stroke-width:1px;"/>
                        </g>
                        <g transform="matrix(1,0,0,1,-5963.14,18.7624)">
                            <path d="M1494.75,2247.79L1900.34,2249.17" style="fill:none;stroke:white;stroke-width:0.9px;"/>
                        </g>
                        <g transform="matrix(0.979436,-6.98399e-05,-6.98399e-05,1,-5930.11,58.7088)">
                            <path d="M1494.75,2247.79L1903.34,2250.92" style="fill:none;stroke:white;stroke-width:0.91px;"/>
                        </g>
                        <g transform="matrix(1,0,0,1,-5963.14,18.7624)">
                            <path d="M1868.79,2582.11C1848.97,2575.19 1834.13,2563.61 1822.01,2551.16C1801.66,2530.33 1792.72,2504.08 1793.56,2476.71C1809.98,2483.85 1822.36,2497.26 1830.24,2517.62C1835.68,2517.44 1838.35,2511.83 1837.15,2505.3C1833.27,2492.29 1823.51,2483.25 1811.25,2475.9L1820.83,2475.58C1839.45,2488.96 1852.51,2503.53 1855.42,2518.44L1868.79,2582.11Z" style="fill:rgb(101,115,127);stroke:black;stroke-width:1.03px;"/>
                        </g>
                        <g transform="matrix(1,0,0,1,-6407.48,24.6777)">
                            <path d="M2098.05,2474.56C2082.06,2483.29 2070.64,2491.44 2061.23,2516.1C2057.64,2515.97 2054.98,2513.22 2053.84,2507.73C2056.2,2494.22 2064.54,2483.34 2079.05,2474.94L2071.22,2475.12C2053.66,2488.1 2040.25,2500.82 2036.69,2515.4C2030.83,2537.28 2025.79,2559.15 2021.74,2581.03C2049.67,2570.37 2068.9,2553.5 2081.79,2532.81C2091.8,2517.5 2098.24,2499.14 2098.05,2474.56Z" style="fill:rgb(101,115,127);stroke:black;stroke-width:1.03px;"/>
                        </g>
                        <g transform="matrix(-1,0,0,1,-2072.09,20.7457)">
                            <path d="M2022.32,2579.86C2022.56,2582.66 2021.09,2586.96 2026.76,2587.81L2306.4,2593.05C2312.71,2592.3 2313.23,2592.52 2313.69,2584.86C2269.07,2568.74 2237.64,2529.11 2237.38,2478.56L2097.56,2474.82C2099.02,2522.84 2068.46,2561.66 2022.32,2579.86Z" style="fill:rgb(218,218,218);stroke:black;stroke-width:1.03px;"/>
                        </g>
                        <g transform="matrix(1,0,0,1,-6407.25,23.5649)">
                            <path d="M2029.76,2590.22C2026.54,2592.29 2023.67,2594.69 2020.28,2597.51C2016.36,2601.13 2018.02,2602.82 2023.64,2602.32L2311.5,2596.06C2315.31,2596.16 2316.43,2593.78 2310.86,2589.39C2308.53,2587.43 2306.74,2586.88 2303.75,2584.96C2213.26,2587.09 2121.51,2587.43 2029.76,2590.22Z" style="fill:rgb(107,114,116);stroke:black;stroke-width:1.03px;"/>
                        </g>
                        <g transform="matrix(1.08089,0,0,1,-6107.78,22.6743)">
                            <path d="M1692.13,2507.93C1701.91,2501.09 1715.26,2497.25 1733.32,2497.35C1752.14,2496.78 1760.31,2502.29 1768.02,2506.8C1744.84,2502.94 1719.55,2503.32 1692.13,2507.93Z" style="fill:white;stroke:black;stroke-width:0.99px;"/>
                        </g>
                        <g transform="matrix(-1,0,0,1,-2083.1,20.1095)">
                            <path d="M2284.7,2451.51L2296.6,2451.86L2367.71,2312.05L2367.74,2304.92L2350.01,2304.93L2284.7,2451.51Z" style="fill:rgb(72,86,96);stroke:black;stroke-width:1.03px;"/>
                        </g>
                        <g transform="matrix(1,0,0,1,-5963.11,18.8014)">
                            <path d="M1852.36,2444.61L1792.73,2446.5L1792.68,2422.47C1803.39,2423.52 1813.78,2424.68 1823.98,2425.91L1822.45,2406.38C1821.58,2404.27 1812.67,2402.42 1792.19,2400.93L1792.12,2370.95C1803.11,2372 1813.54,2373.18 1823.71,2374.44C1823.19,2367.57 1822.69,2361.09 1822.13,2354.82C1821.16,2352.54 1809,2350.59 1791.78,2349.47L1791.68,2306.5L1885.88,2306.57L1885.99,2312.57L1852.36,2444.61Z" style="fill:rgb(72,86,96);stroke:black;stroke-width:1.03px;"/>
                        </g>
                        <g transform="matrix(1,0,0,1,-5963.14,18.7624)">
                            <path d="M1583.28,2067.75C1563.52,2061.44 1530.86,2063.59 1519.84,2079.61C1535.02,2067.06 1557.18,2063.77 1586.32,2069.94L1583.28,2067.75Z" style="fill:rgb(44,62,76);stroke:black;stroke-width:1.03px;"/>
                        </g>
                        <g transform="matrix(1,0,0,1,-5963.14,18.7624)">
                            <path d="M1595.34,2452.83L1530.03,2306.27L1791.69,2306.51L1791.8,2349.44C1699.43,2344.03 1636.75,2345.85 1598.98,2358.44L1598.95,2380.54C1610.17,2369.17 1697.06,2363.86 1792.1,2370.87L1792.21,2400.91C1707.77,2396.42 1644.91,2395.91 1599.26,2409.87L1599.22,2431.99C1609.86,2419.14 1738.79,2415.21 1792.7,2422.45L1792.72,2446.51L1595.34,2452.83Z" style="fill:rgb(101,115,127);stroke:black;stroke-width:1.03px;"/>
                        </g>
                        <g transform="matrix(1,0,0,1,-5963.14,18.7624)">
                            <path d="M1511.9,2273.04L1511.76,2264.17L1885.21,2265.52L1885.29,2272.6L1511.9,2273.04Z" style="fill:rgb(79,91,101);stroke:black;stroke-width:1.03px;"/>
                        </g>
                        <g transform="matrix(1,0,0,1,-5963.14,18.7624)">
                            <path d="M1792.55,2226.55L1792.57,2125.38C1751.15,2135.79 1709.81,2141.64 1668.63,2137.73C1624.44,2136.83 1602.29,2129.24 1574.39,2100.07C1560.17,2085.2 1551.2,2069.39 1544.56,2053.17C1527.81,2075.78 1515.93,2098.19 1510.77,2116.22C1512.19,2118.42 1512.46,2120.03 1512.04,2122.04L1507.58,2155.83C1507.52,2158 1507.25,2160.06 1504.38,2162.14C1501.76,2178.95 1501.77,2190.3 1503.04,2199.04C1504.84,2200.23 1506.63,2201.24 1508.43,2201.95L1509.7,2227.15L1792.55,2226.55Z" style="fill:rgb(101,115,127);stroke:black;stroke-width:1.03px;"/>
                        </g>
                    </g>
                    <g transform="matrix(0.0575565,-0.412103,0.473381,0.0661149,-5042.22,2683.89)">
                        <ellipse cx="1509.39" cy="1118.31" rx="22.332" ry="12.808" style="fill:rgb(163,146,130);"/>
                    </g>
                    <g transform="matrix(0.991669,0.128814,-0.128814,0.991669,-5677.54,-155.111)">
                        <path d="M1511.92,2117.34C1511.92,2114.55 1509.65,2112.29 1506.87,2112.29L1496.77,2112.29C1493.99,2112.29 1491.73,2114.55 1491.73,2117.34L1491.73,2155.03C1491.73,2157.81 1493.99,2160.07 1496.77,2160.07L1506.87,2160.07C1509.65,2160.07 1511.92,2157.81 1511.92,2155.03L1511.92,2117.34Z" style="fill:rgb(228,228,228);stroke:black;stroke-width:0.9px;"/>
                    </g>
                    <g transform="matrix(0.988271,0.152708,-0.152708,0.988271,-5617.65,-180.929)">
                        <path d="M1498.87,2118.75C1498.87,2117.81 1498.11,2117.05 1497.17,2117.05L1493.78,2117.05C1492.84,2117.05 1492.08,2117.81 1492.08,2118.75L1492.08,2151.68C1492.08,2152.61 1492.84,2153.37 1493.78,2153.37L1497.17,2153.37C1498.11,2153.37 1498.87,2152.61 1498.87,2151.68L1498.87,2118.75Z" style="fill:rgb(44,62,76);stroke:black;stroke-width:0.9px;"/>
                    </g>
                </g>
                <g transform="matrix(-0.969352,-0.339457,-0.374847,1.07041,-1647.13,469.88)">
                    <path d="M1792.03,2464.05C1794.17,2464.85 1809.81,2479.15 1812.39,2496.28C1812.14,2497.09 1814.22,2504.64 1813.78,2508.12C1813.72,2508.61 1813.95,2507.71 1813.78,2508.12C1813.78,2508.12 1813.66,2510.09 1814.54,2510.15C1817.63,2510.34 1822.77,2508.65 1823.72,2502.62C1823.17,2504.8 1825.83,2496.35 1820.85,2484.91C1818.24,2479.83 1815.53,2475.51 1810.94,2470.47" style="fill:rgb(190,190,190);stroke:black;stroke-width:0.83px;"/>
                </g>
                <g transform="matrix(0.969352,-0.339457,0.374847,1.07041,-6834.2,464.28)">
                    <path d="M1794.79,2466.8C1795.92,2467.9 1809.41,2479.4 1813.24,2496.32C1813.3,2497.78 1815.48,2506.45 1815.39,2511.29C1815.37,2512.01 1815.62,2511.18 1815.46,2511.57C1815.45,2511.59 1815.47,2511.62 1816.34,2511.84C1818.91,2512.48 1825.44,2510.77 1825.82,2503.81C1825.73,2503.71 1827.12,2493.13 1821.51,2484.89C1819.05,2481.08 1817.87,2476.71 1811.58,2471.25" style="fill:rgb(190,190,190);stroke:black;stroke-width:0.83px;"/>
                </g>
            </g>
        </g>
    </g>
</svg>
